<svg width="116" height="117" viewBox="0 0 116 117" fill="none" xmlns="http://www.w3.org/2000/svg">
<rect y="0.0253906" width="116" height="116" rx="30" fill="#FFCACA"/>
<path d="M76.5037 67.6314L69.81 61.6243C67.7483 59.7741 64.4947 61.4679 64.828 64.218L66.4943 77.9648C66.6016 78.8499 67.097 79.6414 67.8461 80.1247L72.8736 83.3682C74.8698 84.6561 77.4999 83.223 77.4999 80.8473V69.8642C77.4999 69.0122 77.1377 68.2005 76.5037 67.6314Z" fill="#F78F8F"/>
<path d="M38.9963 67.6314L45.69 61.6243C47.7517 59.7741 51.0053 61.4679 50.672 64.218L49.0057 77.9648C48.8984 78.8499 48.403 79.6414 47.6539 80.1247L42.6264 83.3682C40.6302 84.6561 38.0001 83.223 38.0001 80.8473V69.8642C38.0001 69.0122 38.3623 68.2005 38.9963 67.6314Z" fill="#F78F8F"/>
<path d="M63.6417 74.4679H52.2677C49.0658 74.4679 46.411 71.9479 46.3911 68.7462C46.2313 43.0157 53.907 31.5833 58.038 29.0254C67.3856 35.493 69.5372 55.7067 69.4574 68.848C69.4381 72.0136 66.8074 74.4679 63.6417 74.4679Z" fill="#F16A6A"/>
<rect x="54.7793" y="49.999" width="7" height="7" rx="3.5" transform="rotate(-90 54.7793 49.999)" fill="white"/>
</svg>
