<svg width="173" height="41" viewBox="0 0 173 41" fill="none" xmlns="http://www.w3.org/2000/svg">
<path d="M74.3997 30.27C72.8197 30.27 71.3497 30.09 69.9897 29.73C68.6297 29.35 67.5197 28.82 66.6597 28.14C66.3597 27.92 66.1397 27.69 65.9997 27.45C65.8797 27.19 65.8197 26.87 65.8197 26.49C65.8197 25.99 65.9697 25.55 66.2697 25.17C66.5897 24.79 66.9497 24.6 67.3497 24.6C67.5697 24.6 67.7797 24.64 67.9797 24.72C68.1997 24.78 68.4597 24.9 68.7597 25.08C69.6197 25.62 70.4897 26.02 71.3697 26.28C72.2497 26.52 73.2197 26.64 74.2797 26.64C75.5997 26.64 76.6097 26.42 77.3097 25.98C78.0097 25.54 78.3597 24.91 78.3597 24.09C78.3597 23.47 78.0297 22.97 77.3697 22.59C76.7297 22.21 75.5797 21.85 73.9197 21.51C72.0597 21.13 70.5697 20.67 69.4497 20.13C68.3497 19.59 67.5397 18.92 67.0197 18.12C66.5197 17.32 66.2697 16.35 66.2697 15.21C66.2697 13.95 66.6297 12.82 67.3497 11.82C68.0897 10.8 69.0997 10.01 70.3797 9.45C71.6797 8.87 73.1397 8.58 74.7597 8.58C77.5997 8.58 79.9397 9.29 81.7797 10.71C82.0797 10.95 82.2897 11.2 82.4097 11.46C82.5497 11.7 82.6197 12 82.6197 12.36C82.6197 12.86 82.4597 13.3 82.1397 13.68C81.8397 14.06 81.4897 14.25 81.0897 14.25C80.8697 14.25 80.6597 14.22 80.4597 14.16C80.2797 14.1 80.0197 13.97 79.6797 13.77C78.8597 13.25 78.0997 12.86 77.3997 12.6C76.7197 12.34 75.8497 12.21 74.7897 12.21C73.5697 12.21 72.6097 12.45 71.9097 12.93C71.2097 13.39 70.8597 14.03 70.8597 14.85C70.8597 15.33 70.9897 15.73 71.2497 16.05C71.5297 16.35 71.9797 16.62 72.5997 16.86C73.2397 17.1 74.1397 17.35 75.2997 17.61C78.0197 18.21 79.9697 18.98 81.1497 19.92C82.3497 20.86 82.9497 22.15 82.9497 23.79C82.9497 25.07 82.5897 26.2 81.8697 27.18C81.1697 28.16 80.1697 28.92 78.8697 29.46C77.5897 30 76.0997 30.27 74.3997 30.27ZM92.5907 14.91C94.7507 14.91 96.3507 15.44 97.3907 16.5C98.4307 17.54 98.9507 19.14 98.9507 21.3V28.08C98.9507 28.74 98.7607 29.26 98.3807 29.64C98.0007 30 97.4707 30.18 96.7907 30.18C96.1507 30.18 95.6307 29.99 95.2307 29.61C94.8507 29.21 94.6607 28.7 94.6607 28.08V27.87C94.3607 28.61 93.8607 29.19 93.1607 29.61C92.4607 30.03 91.6407 30.24 90.7007 30.24C89.7007 30.24 88.7907 30.04 87.9707 29.64C87.1707 29.24 86.5307 28.68 86.0507 27.96C85.5907 27.24 85.3607 26.44 85.3607 25.56C85.3607 24.48 85.6307 23.63 86.1707 23.01C86.7307 22.39 87.6207 21.94 88.8407 21.66C90.0607 21.38 91.7307 21.24 93.8507 21.24H94.6307V20.7C94.6307 19.86 94.4407 19.25 94.0607 18.87C93.7007 18.49 93.0907 18.3 92.2307 18.3C91.3707 18.3 90.1307 18.6 88.5107 19.2C88.0507 19.42 87.6607 19.53 87.3407 19.53C86.9007 19.53 86.5507 19.38 86.2907 19.08C86.0307 18.76 85.9007 18.35 85.9007 17.85C85.9007 17.45 85.9907 17.12 86.1707 16.86C86.3507 16.6 86.6407 16.36 87.0407 16.14C87.7407 15.76 88.5907 15.46 89.5907 15.24C90.6107 15.02 91.6107 14.91 92.5907 14.91ZM91.6907 27.12C92.5707 27.12 93.2807 26.83 93.8207 26.25C94.3607 25.65 94.6307 24.88 94.6307 23.94V23.43H94.1207C92.5007 23.43 91.3607 23.56 90.7007 23.82C90.0607 24.08 89.7407 24.55 89.7407 25.23C89.7407 25.79 89.9207 26.25 90.2807 26.61C90.6607 26.95 91.1307 27.12 91.6907 27.12ZM108.968 14.91C111.128 14.91 112.728 15.44 113.768 16.5C114.808 17.54 115.328 19.14 115.328 21.3V28.08C115.328 28.74 115.138 29.26 114.758 29.64C114.378 30 113.848 30.18 113.168 30.18C112.528 30.18 112.008 29.99 111.608 29.61C111.228 29.21 111.038 28.7 111.038 28.08V27.87C110.738 28.61 110.238 29.19 109.538 29.61C108.838 30.03 108.018 30.24 107.078 30.24C106.078 30.24 105.168 30.04 104.348 29.64C103.548 29.24 102.908 28.68 102.428 27.96C101.968 27.24 101.738 26.44 101.738 25.56C101.738 24.48 102.008 23.63 102.548 23.01C103.108 22.39 103.998 21.94 105.218 21.66C106.438 21.38 108.108 21.24 110.228 21.24H111.008V20.7C111.008 19.86 110.818 19.25 110.438 18.87C110.078 18.49 109.468 18.3 108.608 18.3C107.748 18.3 106.508 18.6 104.888 19.2C104.428 19.42 104.038 19.53 103.718 19.53C103.278 19.53 102.928 19.38 102.668 19.08C102.408 18.76 102.278 18.35 102.278 17.85C102.278 17.45 102.368 17.12 102.548 16.86C102.728 16.6 103.018 16.36 103.418 16.14C104.118 15.76 104.968 15.46 105.968 15.24C106.988 15.02 107.988 14.91 108.968 14.91ZM108.068 27.12C108.948 27.12 109.658 26.83 110.198 26.25C110.738 25.65 111.008 24.88 111.008 23.94V23.43H110.498C108.878 23.43 107.738 23.56 107.078 23.82C106.438 24.08 106.118 24.55 106.118 25.23C106.118 25.79 106.298 26.25 106.658 26.61C107.038 26.95 107.508 27.12 108.068 27.12ZM150.166 14.97C150.866 14.97 151.416 15.16 151.816 15.54C152.236 15.92 152.446 16.44 152.446 17.1V28.11C152.446 28.73 152.226 29.23 151.786 29.61C151.366 29.99 150.816 30.18 150.136 30.18C149.496 30.18 148.986 30 148.606 29.64C148.226 29.28 148.036 28.8 148.036 28.2V27.9C147.576 28.66 146.966 29.24 146.206 29.64C145.466 30.04 144.626 30.24 143.686 30.24C141.826 30.24 140.436 29.73 139.516 28.71C138.616 27.67 138.166 26.11 138.166 24.03V17.1C138.166 16.44 138.366 15.92 138.766 15.54C139.186 15.16 139.746 14.97 140.446 14.97C141.146 14.97 141.696 15.16 142.096 15.54C142.496 15.92 142.696 16.44 142.696 17.1V24.12C142.696 25 142.876 25.65 143.236 26.07C143.616 26.49 144.186 26.7 144.946 26.7C145.826 26.7 146.536 26.4 147.076 25.8C147.636 25.2 147.916 24.41 147.916 23.43V17.1C147.916 16.44 148.116 15.92 148.516 15.54C148.916 15.16 149.466 14.97 150.166 14.97ZM165.042 14.91C166.302 14.91 167.422 15.24 168.402 15.9C169.402 16.54 170.172 17.45 170.712 18.63C171.272 19.79 171.552 21.13 171.552 22.65C171.552 24.17 171.272 25.51 170.712 26.67C170.172 27.81 169.412 28.69 168.432 29.31C167.452 29.93 166.322 30.24 165.042 30.24C164.042 30.24 163.132 30.04 162.312 29.64C161.512 29.22 160.892 28.64 160.452 27.9V33.57C160.452 34.17 160.252 34.65 159.852 35.01C159.452 35.37 158.922 35.55 158.262 35.55C157.562 35.55 156.992 35.36 156.552 34.98C156.132 34.6 155.922 34.1 155.922 33.48V17.1C155.922 16.46 156.122 15.95 156.522 15.57C156.942 15.17 157.492 14.97 158.172 14.97C158.852 14.97 159.392 15.17 159.792 15.57C160.192 15.95 160.392 16.46 160.392 17.1V17.34C160.832 16.58 161.462 15.99 162.282 15.57C163.102 15.13 164.022 14.91 165.042 14.91ZM163.722 26.79C164.782 26.79 165.602 26.44 166.182 25.74C166.762 25.02 167.052 23.99 167.052 22.65C167.052 21.29 166.762 20.24 166.182 19.5C165.602 18.74 164.782 18.36 163.722 18.36C162.662 18.36 161.842 18.73 161.262 19.47C160.682 20.19 160.392 21.23 160.392 22.59C160.392 23.93 160.682 24.97 161.262 25.71C161.842 26.43 162.662 26.79 163.722 26.79Z" fill="#242331"/>
<path d="M126.695 30.27C125.115 30.27 123.645 30.09 122.285 29.73C120.925 29.35 119.815 28.82 118.955 28.14C118.655 27.92 118.435 27.69 118.295 27.45C118.175 27.19 118.115 26.87 118.115 26.49C118.115 25.99 118.265 25.55 118.565 25.17C118.885 24.79 119.245 24.6 119.645 24.6C119.865 24.6 120.075 24.64 120.275 24.72C120.495 24.78 120.755 24.9 121.055 25.08C121.915 25.62 122.785 26.02 123.665 26.28C124.545 26.52 125.515 26.64 126.575 26.64C127.895 26.64 128.905 26.42 129.605 25.98C130.305 25.54 130.655 24.91 130.655 24.09C130.655 23.47 130.325 22.97 129.665 22.59C129.025 22.21 127.875 21.85 126.215 21.51C124.355 21.13 122.865 20.67 121.745 20.13C120.645 19.59 119.835 18.92 119.315 18.12C118.815 17.32 118.565 16.35 118.565 15.21C118.565 13.95 118.925 12.82 119.645 11.82C120.385 10.8 121.395 10.01 122.675 9.45C123.975 8.87 125.435 8.58 127.055 8.58C129.895 8.58 132.235 9.29 134.075 10.71C134.375 10.95 134.585 11.2 134.705 11.46C134.845 11.7 134.915 12 134.915 12.36C134.915 12.86 134.755 13.3 134.435 13.68C134.135 14.06 133.785 14.25 133.385 14.25C133.165 14.25 132.955 14.22 132.755 14.16C132.575 14.1 132.315 13.97 131.975 13.77C131.155 13.25 130.395 12.86 129.695 12.6C129.015 12.34 128.145 12.21 127.085 12.21C125.865 12.21 124.905 12.45 124.205 12.93C123.505 13.39 123.155 14.03 123.155 14.85C123.155 15.33 123.285 15.73 123.545 16.05C123.825 16.35 124.275 16.62 124.895 16.86C125.535 17.1 126.435 17.35 127.595 17.61C130.315 18.21 132.265 18.98 133.445 19.92C134.645 20.86 135.245 22.15 135.245 23.79C135.245 25.07 134.885 26.2 134.165 27.18C133.465 28.16 132.465 28.92 131.165 29.46C129.885 30 128.395 30.27 126.695 30.27Z" fill="#242333"/>
<path fill-rule="evenodd" clip-rule="evenodd" d="M48.6733 13.3516C54.155 14.173 58.3587 18.9018 58.3587 24.6124C58.3587 30.9013 53.2606 35.9995 46.9717 35.9995H31.6271C31.6019 35.9996 31.5768 35.9996 31.5516 35.9996C31.5265 35.9996 31.5014 35.9996 31.4762 35.9995H11.3871C5.09816 35.9995 0 30.9013 0 24.6124C0 18.3235 5.09816 13.2253 11.3871 13.2253H14.4663C16.6209 5.82376 23.4546 0.415039 31.5516 0.415039C39.6947 0.415039 46.56 5.88537 48.6733 13.3516Z" fill="#5236FF"/>
<mask id="mask0_1_1063" style="mask-type:alpha" maskUnits="userSpaceOnUse" x="0" y="0" width="59" height="36">
<path fill-rule="evenodd" clip-rule="evenodd" d="M48.6733 13.3521C54.155 14.1735 58.3587 18.9023 58.3587 24.6129C58.3587 30.9018 53.2606 36 46.9717 36H31.6271C31.6019 36.0001 31.5768 36.0001 31.5516 36.0001C31.5265 36.0001 31.5014 36.0001 31.4762 36H11.3871C5.09816 36 0 30.9018 0 24.6129C0 18.324 5.09816 13.2258 11.3871 13.2258H14.4663C16.6209 5.82425 23.4546 0.415527 31.5516 0.415527C39.6947 0.415527 46.56 5.88585 48.6733 13.3521Z" fill="#5236FF"/>
</mask>
<g mask="url(#mask0_1_1063)">
<path d="M27.613 10.7564L-2.37305 40.7446L62.1537 40.1758L32.7221 10.6514" fill="#644AFF"/>
</g>
<path d="M30.2195 30.8859C29.1266 30.8859 28.2402 29.9931 28.2402 28.8913V10.9501C28.2406 9.84838 29.1266 8.95557 30.2195 8.95557C31.3125 8.95557 32.1988 9.84838 32.1988 10.9501V28.8913C32.1988 29.9927 31.3128 30.8859 30.2195 30.8859Z" fill="white"/>
<path d="M38.5511 19.3441C39.324 18.5653 39.324 17.3022 38.5511 16.5234L31.6209 9.53969C30.8481 8.76086 29.5947 8.76086 28.8218 9.53969C28.049 10.3185 28.049 11.5816 28.8218 12.3604L35.752 19.3441C36.5253 20.123 37.7783 20.123 38.5511 19.3441Z" fill="white"/>
<path d="M21.8902 19.3441C21.1173 18.5653 21.1173 17.3022 21.8902 16.5234L28.8204 9.53969C29.5933 8.76086 30.8466 8.76086 31.6195 9.53969C32.3924 10.3185 32.3924 11.5816 31.6195 12.3604L24.6893 19.3441C23.9161 20.123 22.6631 20.123 21.8902 19.3441Z" fill="white"/>
</svg>
